<?xml version="1.0" encoding="utf-8"?>
<!-- Generator: Adobe Illustrator 25.0.1, SVG Export Plug-In . SVG Version: 6.00 Build 0)  -->
<svg version="1.1" id="图层_1" xmlns="http://www.w3.org/2000/svg" xmlns:xlink="http://www.w3.org/1999/xlink" x="0px" y="0px"
	 viewBox="0 0 123 40" style="enable-background:new 0 0 123 40;" xml:space="preserve">
<style type="text/css">
	.st0{fill:#73CC2E;}
	.st1{fill:#E5E5E5;}
	.st2{fill:#FFFDFD;}
	.st3{fill:url(#SVGID_1_);}
	.st4{fill:#D8D8D8;}
	.st5{fill:#F2F2F2;}
	.st6{fill:#222222;}
</style>
<g>
	<g>
		<path class="st0" d="M36.5,35.8L36.5,35.8c-8.7,0-15.8-7.1-15.8-15.8v0c0-8.7,7.1-15.8,15.8-15.8h0c8.7,0,15.8,7.1,15.8,15.8v0
			C52.2,28.7,45.2,35.8,36.5,35.8z"/>
		<g>
			<polygon class="st1" points="38.3,21.3 40.8,21.3 37.8,26.6 36.4,24.3 			"/>
			<polygon class="st2" points="27.3,13.4 26,15.7 41.5,15.7 40.3,17.9 42.9,17.9 45.5,13.4 			"/>
			<linearGradient id="SVGID_1_" gradientUnits="userSpaceOnUse" x1="26.3788" y1="15.1597" x2="40.7888" y2="25.0475">
				<stop  offset="0" style="stop-color:#FFFDFD"/>
				<stop  offset="1" style="stop-color:#E0E0E0"/>
			</linearGradient>
			<polygon class="st3" points="35.1,31 26,15.7 41.5,15.7 40.3,17.9 30,17.9 37.8,31 			"/>
			<polygon class="st4" points="42.2,23.6 40.8,21.3 37.8,26.6 32.7,17.9 30,17.9 37.8,31 			"/>
			<polygon class="st4" points="45.5,13.4 46.9,15.7 44.3,20.1 42.9,17.9 			"/>
			<polygon class="st5" points="40.3,17.9 41.7,20.1 44.3,20.1 42.9,17.9 			"/>
		</g>
	</g>
	<g>
		<path class="st6" d="M64.1,15.8v15.1h-3.6V15.8h-4.8v-3.2h13.1v3.2H64.1z"/>
		<path class="st6" d="M82.6,29c-1.5,1.5-3.2,2.1-5.2,2.1c-2,0-3.6-0.7-4.9-2c-1.8-1.8-1.8-4.1-1.8-7.3c0-3.2-0.1-5.4,1.8-7.3
			c1.3-1.3,2.9-2,4.9-2c4.2,0,6.4,2.8,6.9,5.9h-3.6c-0.4-1.7-1.5-2.7-3.3-2.7c-1,0-1.8,0.4-2.3,1c-0.7,0.8-0.9,1.6-0.9,5.1
			c0,3.5,0.2,4.4,0.9,5.2c0.5,0.6,1.3,1,2.3,1c1.1,0,2-0.4,2.5-1c0.6-0.7,0.8-1.5,0.8-2.4v-0.7h-3.4v-3h6.9v2.7
			C84.3,26,83.9,27.6,82.6,29z"/>
		<path class="st6" d="M98.8,30.9l-7.2-11.2v11.2H88V12.6h3.2l7.2,11.2V12.6h3.6v18.3H98.8z"/>
	</g>
</g>
</svg>
