<svg width="123" height="40" viewBox="0 0 123 40" fill="none" xmlns="http://www.w3.org/2000/svg">
<g id="Group 1">
<g id="_&#233;&#141;&#166;&#230;&#160;&#167;&#229;&#160;&#161;_1" clip-path="url(#clip0_1_149)">
<g id="Group">
<path id="Vector" fill-rule="evenodd" clip-rule="evenodd" d="M39.9954 18.7806C39.9954 18.5701 39.9671 18.318 39.9527 18.1014L38.673 18.1838L38.3974 18.1934L38.0858 18.1946C35.8543 18.1946 33.7221 17.75 31.7806 16.9438C29.7615 16.1075 27.9422 14.8778 26.4194 13.3556C24.8973 11.8341 23.6687 10.0141 22.8312 7.99444C22.0256 6.05174 21.5804 3.92194 21.5798 1.69046L21.5864 1.20794L21.6478 0.0311348C20.4824 -0.0103783 19.5511 -0.0103783 18.3857 0.0311348L18.4471 1.20794L18.4531 1.69046C18.4531 3.92194 18.0079 6.05174 17.2023 7.99444C16.3648 10.0135 15.1357 11.8341 13.6129 13.3556C12.0914 14.8778 10.2714 16.1075 8.2517 16.9438C6.309 17.75 4.1792 18.1946 1.94772 18.1946L1.63547 18.1934C1.11445 18.1772 0.600048 18.1369 0.0808333 18.0984C0.0381169 18.7379 0.0044251 19.3654 0.000213623 20.005L0.0110431 20.5398L0.0411251 21.4218C0.571771 21.3827 1.09881 21.343 1.63126 21.3256L1.94772 21.3238C4.1792 21.3238 6.309 21.769 8.2517 22.5746C10.2708 23.4127 12.0914 24.6406 13.6129 26.1627C15.1351 27.6855 16.3648 29.5036 17.2023 31.524C18.0079 33.4654 18.4531 35.5965 18.4531 37.8291L18.4501 38.201L18.4375 38.5493C18.4086 39.0228 18.3677 39.4933 18.3268 39.9668C19.5415 40.0113 20.4927 40.0113 21.7086 39.9668L21.6171 38.8964L21.5961 38.5511L21.5834 38.1997L21.5816 37.8291C21.5816 35.5965 22.0268 33.4654 22.8324 31.524C23.6699 29.5036 24.8985 27.6855 26.4206 26.1627C27.9428 24.6406 29.7621 23.4127 31.7818 22.5746C33.7233 21.769 35.8549 21.3238 38.087 21.3238L38.4035 21.3256C38.9371 21.343 39.4642 21.3827 39.9966 21.4218C40.0249 20.5037 40.0381 19.6963 39.9966 18.7806H39.9954ZM27.4705 21.3226C26.2895 22.083 25.1969 22.9662 24.2114 23.9529C23.2247 24.939 22.3415 26.0322 21.581 27.2132C20.9794 28.1439 20.4554 29.1294 20.018 30.1612C19.5782 29.1306 19.0535 28.1439 18.4531 27.2126C17.6932 26.0358 16.8106 24.942 15.8209 23.9541C14.833 22.9656 13.7417 22.0824 12.5649 21.3238C11.6323 20.7209 10.6468 20.1981 9.61622 19.7589C10.6474 19.3203 11.6323 18.7951 12.5643 18.1946C13.7435 17.4342 14.8378 16.5522 15.8233 15.5661C16.81 14.5794 17.692 13.485 18.4549 12.3058C19.0547 11.3744 19.5794 10.3878 20.0192 9.35775C20.4566 10.389 20.9806 11.375 21.5822 12.3058C22.3427 13.4868 23.2259 14.5794 24.2126 15.5661C25.1975 16.5497 26.2913 17.4342 27.4711 18.1958C28.4006 18.7957 29.3873 19.3203 30.4197 19.7589C29.3885 20.1987 28.4036 20.7215 27.4717 21.3232L27.4705 21.3226Z" fill="#EF412E"/>
<path id="Vector_2" fill-rule="evenodd" clip-rule="evenodd" d="M17.6363 17.6215C17.9467 17.3111 18.3192 17.0608 18.7307 16.8899C19.1278 16.7251 19.5622 16.6336 20.0176 16.6336C20.473 16.6336 20.9074 16.7251 21.3045 16.8899C21.7148 17.0608 22.0848 17.3111 22.3953 17.6197C22.7075 17.9301 22.9578 18.302 23.1281 18.7135C23.2941 19.1112 23.3844 19.5479 23.3844 20.0004C23.3844 20.4528 23.2941 20.8902 23.1281 21.2879C22.9584 21.6982 22.7087 22.0688 22.3983 22.3787C22.0878 22.6903 21.716 22.9406 21.3045 23.1121C20.9068 23.2769 20.4718 23.3672 20.0176 23.3672C19.5634 23.3672 19.1278 23.2751 18.7307 23.1121C18.3204 22.9424 17.9486 22.6909 17.6393 22.3817C17.3277 22.0712 17.0774 21.7006 16.9059 21.2879C16.7417 20.8902 16.6508 20.4552 16.6508 20.0004C16.6508 19.5455 16.7423 19.1118 16.9059 18.7159C17.0756 18.3038 17.3271 17.9337 17.6363 17.6221" fill="#EF412E"/>
<path id="Vector_3" fill-rule="evenodd" clip-rule="evenodd" d="M26.6445 38.8924L26.165 39.0536C25.7156 39.1926 25.2686 39.3255 24.8173 39.4585L24.8378 38.5446C24.8787 36.6862 25.2764 34.9155 25.9622 33.2983C26.6734 31.6228 27.6974 30.1078 28.9584 28.8299C30.22 27.5521 31.7235 26.5088 33.3919 25.7754C35.0007 25.0679 36.7659 24.6479 38.6201 24.5842L39.537 24.5511C39.4101 25.0041 39.2819 25.4554 39.1496 25.9048L38.9932 26.3867L38.8271 26.8638L38.5028 27.7061L38.0895 27.744C36.7653 27.8661 35.5066 28.2211 34.3545 28.7686C33.1681 29.3311 32.0948 30.0982 31.1827 31.0205C30.2706 31.9464 29.5155 33.0282 28.9674 34.2218C28.4386 35.3776 28.0993 36.6416 27.9934 37.9713L27.9603 38.381L27.1072 38.7233L26.6433 38.893L26.6445 38.8924Z" fill="#EF412E"/>
<path id="Vector_4" fill-rule="evenodd" clip-rule="evenodd" d="M38.8166 13.1044L38.9815 13.5767C39.1319 14.0424 39.2763 14.5075 39.4219 14.9749L38.4707 14.931C36.6766 14.8504 34.9679 14.4371 33.4067 13.7524C31.7883 13.0443 30.3257 12.0437 29.0869 10.8218C27.8457 9.59507 26.826 8.14452 26.0974 6.53573C25.3922 4.9811 24.9585 3.27665 24.8544 1.48437L24.8002 0.535583C25.2671 0.674562 25.731 0.812338 26.1954 0.956731L26.6834 1.12098L27.1569 1.29485L27.9943 1.63358L28.0407 2.02163C28.1959 3.28327 28.5617 4.48053 29.102 5.57612C29.6561 6.70359 30.3973 7.72457 31.2811 8.59755C32.1643 9.46993 33.1937 10.1979 34.329 10.7388C35.4312 11.2646 36.6327 11.6172 37.8931 11.7538L38.286 11.7977L38.6331 12.6334L38.8154 13.105L38.8166 13.1044Z" fill="#EF412E"/>
<path id="Vector_5" fill-rule="evenodd" clip-rule="evenodd" d="M1.04236 26.3861L0.88593 25.906C0.752968 25.4547 0.626022 25.0035 0.498474 24.5505L1.41357 24.5836C3.26902 24.6473 5.03484 25.0679 6.64482 25.7748C8.31076 26.5076 9.81306 27.5496 11.0771 28.8293C12.3363 30.106 13.3603 31.6209 14.0727 33.2989C14.7585 34.9155 15.1556 36.6861 15.1965 38.5446L15.22 39.4585C14.7658 39.3243 14.3157 39.1914 13.8657 39.053L13.3934 38.893L12.9283 38.7251L12.0746 38.3804L12.0427 37.9706C11.9362 36.641 11.5981 35.377 11.0675 34.2212C10.5194 33.0276 9.76553 31.9458 8.85224 31.0199C7.94136 30.0982 6.86803 29.3305 5.6804 28.768C4.52886 28.2205 3.27023 27.8655 1.94662 27.7434L1.53329 27.7055L1.20841 26.8602L1.04356 26.3855L1.04236 26.3861Z" fill="#EF412E"/>
<path id="Vector_6" fill-rule="evenodd" clip-rule="evenodd" d="M13.3553 1.11918L13.8415 0.956138C14.3053 0.811745 14.7698 0.674571 15.2337 0.536194L15.1795 1.48498C15.0754 3.27726 14.641 4.98171 13.9365 6.53634C13.2067 8.14513 12.1882 9.59568 10.9458 10.8224C9.7076 12.0438 8.24562 13.0443 6.62721 13.753C5.06716 14.4383 3.3573 14.8516 1.56321 14.9316L0.61322 14.9755C0.757614 14.5099 0.901406 14.0448 1.05061 13.5809L1.21727 13.1056L1.39475 12.6382L1.74791 11.7977L2.13898 11.7538C3.40062 11.6172 4.60089 11.2646 5.70309 10.7388C6.83959 10.1973 7.86899 9.46753 8.7528 8.59515C9.63601 7.72398 10.3772 6.7018 10.9313 5.57553C11.471 4.47934 11.8368 3.28268 11.992 2.02104L12.0408 1.63298L12.8843 1.29245L13.3559 1.11858L13.3553 1.11918Z" fill="#EF412E"/>
</g>
<g id="Group_2">
<path id="Vector_7" d="M48.1129 28.8624C48.1129 26.6712 49.8661 24.9072 52.1336 24.9072C54.4012 24.9072 56.1436 26.6712 56.1436 28.8624C56.1436 31.0536 54.3904 32.8176 52.1336 32.8176C49.8769 32.8176 48.1129 31.0536 48.1129 28.8624ZM52.1336 31.3496C53.5036 31.3496 54.6208 30.254 54.6208 28.8624C54.6208 27.4708 53.5036 26.3752 52.1336 26.3752C50.7637 26.3752 49.6356 27.4708 49.6356 28.8624C49.6356 30.254 50.7535 31.3496 52.1336 31.3496Z" fill="black"/>
<path id="Vector_8" d="M64.3627 25.0275H67.9894C69.5892 25.0275 70.6739 26.1886 70.6739 27.5802C70.6739 28.544 70.1589 29.399 69.3046 29.8261L70.9483 32.6966H69.3269L67.8589 30.133H65.8428V32.6966H64.3633V25.0269L64.3627 25.0275ZM67.9461 28.7528C68.6476 28.7528 69.1512 28.227 69.1512 27.5916C69.1512 26.9563 68.647 26.419 67.9461 26.419H65.8422V28.7528H67.9461Z" fill="black"/>
<path id="Vector_9" d="M79.0673 25.0275H80.5468V32.6972H79.0673V25.0275Z" fill="black"/>
<path id="Vector_10" d="M88.7652 28.8624C88.7652 26.6712 90.5184 24.9072 92.7865 24.9072C94.5289 24.9072 95.9746 25.9156 96.5336 27.46H94.846C94.4405 26.7476 93.7281 26.3536 92.7859 26.3536C91.4052 26.3536 90.2879 27.46 90.2879 28.8624C90.2879 30.2648 91.4058 31.3827 92.7859 31.3827C93.8707 31.3827 94.6925 30.7913 95.0541 29.8599H92.6764V28.5345H96.7411V28.8083C96.7411 31.1089 95.0427 32.8182 92.7859 32.8182C90.5292 32.8182 88.7646 31.0542 88.7646 28.863L88.7652 28.8624Z" fill="black"/>
<path id="Vector_11" d="M104.958 25.0275H106.438V32.6972H104.958V25.0275Z" fill="black"/>
<path id="Vector_12" d="M120.869 32.6972L116.509 27.8215V32.6972H115.029V25.0275H115.917L120.365 29.9032V25.0275H121.844V32.6972H120.869H120.869Z" fill="black"/>
</g>
<g id="Group_3">
<path id="Vector_13" d="M63.5562 9.48047H66.8321L68.9559 18.247L71.4636 9.48047H74.6944L77.202 18.247L79.3486 9.48047H82.5572L79.055 21.7485H75.6431L73.0675 13.0271L70.4919 21.7485H67.1029L63.5556 9.48047H63.5562Z" fill="black"/>
<path id="Vector_14" d="M83.0087 15.6028C83.0087 12.0784 85.6295 9.23145 89.0185 9.23145C90.7356 9.23145 92.046 9.97688 92.9496 11.129V9.47992H95.8868V21.748H92.9496V20.0989C92.046 21.251 90.7356 21.9964 89.0185 21.9964C85.6295 21.9964 83.0087 19.1495 83.0087 15.6028ZM89.5383 19.0147C91.4359 19.0147 92.9496 17.501 92.9496 15.6028C92.9496 13.7046 91.4359 12.2138 89.5383 12.2138C87.6408 12.2138 86.1493 13.7275 86.1493 15.6028C86.1493 17.4781 87.6402 19.0147 89.5383 19.0147Z" fill="black"/>
<path id="Vector_15" d="M98.3945 4.5769H101.445V21.7477H98.3945V4.5769ZM101.67 15.3769L106.325 9.48027H109.782L105.127 15.1964L110.007 21.7483H106.393L101.67 15.3769Z" fill="black"/>
<path id="Vector_16" d="M109.872 15.6028C109.872 12.0784 112.605 9.23145 116.288 9.23145C119.971 9.23145 122.637 11.9202 122.637 15.3543C122.637 15.8062 122.591 16.1449 122.501 16.5516H113.012C113.351 18.0653 114.526 19.1952 116.266 19.1952C117.553 19.1952 118.299 18.7205 118.932 17.9299H122.253C121.304 20.3251 119.135 21.9964 116.288 21.9964C112.605 21.9964 109.872 19.1495 109.872 15.6028ZM119.429 14.1571C118.977 12.7787 117.847 11.8979 116.288 11.8979C114.729 11.8979 113.577 12.7787 113.125 14.1571H119.429Z" fill="black"/>
<path id="Vector_17" d="M61.3214 21.7484H64.7556L57.051 5.93311H55.2888L47.562 21.7484H50.9287L52.1085 19.2636L54.1228 15.0028L56.1251 10.745L58.4149 15.6141L60.1416 19.2636L61.3214 21.7484Z" fill="black"/>
</g>
</g>
</g>
<defs>
<clipPath id="clip0_1_149">
<rect width="122.635" height="40" fill="white"/>
</clipPath>
</defs>
</svg>
