<?xml version="1.0" encoding="utf-8"?>
<!-- Generator: Adobe Illustrator 25.0.1, SVG Export Plug-In . SVG Version: 6.00 Build 0)  -->
<svg version="1.1" id="图层_1" xmlns="http://www.w3.org/2000/svg" xmlns:xlink="http://www.w3.org/1999/xlink" x="0px" y="0px"
	 viewBox="0 0 99 32" style="enable-background:new 0 0 99 32;" xml:space="preserve">
<style type="text/css">
	.st0{fill:#73CC2E;}
	.st1{fill:#E5E5E5;}
	.st2{fill:#FFFDFD;}
	.st3{fill:url(#SVGID_1_);}
	.st4{fill:#D8D8D8;}
	.st5{fill:#F2F2F2;}
	.st6{fill:#FFFFFF;}
</style>
<g>
	<g>
		<path class="st0" d="M24.6,31.8L24.6,31.8c-8.7,0-15.8-7.1-15.8-15.8v0c0-8.7,7.1-15.8,15.8-15.8h0c8.7,0,15.8,7.1,15.8,15.8v0
			C40.4,24.7,33.4,31.8,24.6,31.8z"/>
		<g>
			<polygon class="st1" points="26.4,17.3 29,17.3 25.9,22.6 24.6,20.3 			"/>
			<polygon class="st2" points="15.5,9.4 14.2,11.7 29.7,11.7 28.5,13.9 31.1,13.9 33.7,9.4 			"/>
			<linearGradient id="SVGID_1_" gradientUnits="userSpaceOnUse" x1="14.5613" y1="11.1597" x2="28.9713" y2="21.0475">
				<stop  offset="0" style="stop-color:#FFFDFD"/>
				<stop  offset="1" style="stop-color:#E0E0E0"/>
			</linearGradient>
			<polygon class="st3" points="23.3,27 14.2,11.7 29.7,11.7 28.5,13.9 18.2,13.9 25.9,27 			"/>
			<polygon class="st4" points="30.4,19.6 29,17.3 25.9,22.6 20.9,13.9 18.2,13.9 25.9,27 			"/>
			<polygon class="st4" points="33.7,9.4 35.1,11.7 32.5,16.1 31.1,13.9 			"/>
			<polygon class="st5" points="28.5,13.9 29.8,16.1 32.5,16.1 31.1,13.9 			"/>
		</g>
	</g>
	<g>
		<path class="st6" d="M52.3,11.8v15.1h-3.6V11.8H44V8.6h13.1v3.2H52.3z"/>
		<path class="st6" d="M70.8,25c-1.5,1.5-3.2,2.1-5.2,2.1c-2,0-3.6-0.7-4.9-2c-1.8-1.8-1.8-4.1-1.8-7.3c0-3.2-0.1-5.4,1.8-7.3
			c1.3-1.3,2.9-2,4.9-2c4.2,0,6.4,2.8,6.9,5.9h-3.6c-0.4-1.7-1.5-2.7-3.3-2.7c-1,0-1.8,0.4-2.3,1c-0.7,0.8-0.9,1.6-0.9,5.1
			c0,3.5,0.2,4.4,0.9,5.2c0.5,0.6,1.3,1,2.3,1c1.1,0,2-0.4,2.5-1c0.6-0.7,0.8-1.5,0.8-2.4v-0.7h-3.4v-3h6.9v2.7
			C72.5,22,72,23.6,70.8,25z"/>
		<path class="st6" d="M86.9,26.9l-7.2-11.2v11.2h-3.6V8.6h3.2l7.2,11.2V8.6h3.6v18.3H86.9z"/>
	</g>
</g>
</svg>
