<svg width="99" height="32" viewBox="0 0 99 32" fill="none" xmlns="http://www.w3.org/2000/svg">
<g id="Group 48">
<g id="_&#233;&#141;&#166;&#230;&#160;&#167;&#229;&#160;&#161;_1" clip-path="url(#clip0_1_88)">
<g id="Group">
<path id="Vector" fill-rule="evenodd" clip-rule="evenodd" d="M31.9964 15.0245C31.9964 14.856 31.9737 14.6544 31.9622 14.4811L30.9384 14.547L30.718 14.5547L30.4687 14.5557C28.6835 14.5557 26.9777 14.2 25.4245 13.5551C23.8093 12.886 22.3538 11.9022 21.1356 10.6845C19.9179 9.46728 18.935 8.01131 18.265 6.39555C17.6206 4.84139 17.2644 3.13755 17.2639 1.35237L17.2692 0.966353L17.3183 0.0249079C16.386 -0.00830263 15.6409 -0.00830263 14.7086 0.0249079L14.7577 0.966353L14.7625 1.35237C14.7625 3.13755 14.4064 4.84139 13.7619 6.39555C13.0919 8.01083 12.1086 9.46728 10.8904 10.6845C9.67313 11.9022 8.21716 12.886 6.6014 13.5551C5.04725 14.2 3.3434 14.5557 1.55822 14.5557L1.30842 14.5547C0.891603 14.5417 0.480081 14.5095 0.0647094 14.4787C0.0305363 14.9903 0.0035828 15.4923 0.000213623 16.004L0.00887723 16.4319L0.0329428 17.1375C0.45746 17.1062 0.879089 17.0744 1.30505 17.0604L1.55822 17.059C3.3434 17.059 5.04725 17.4152 6.6014 18.0597C8.21668 18.7301 9.67313 19.7125 10.8904 20.9302C12.1081 22.1484 13.0919 23.6029 13.7619 25.2192C14.4064 26.7724 14.7625 28.4772 14.7625 30.2633L14.7601 30.5608L14.75 30.8394C14.7269 31.2182 14.6942 31.5946 14.6614 31.9734C15.6332 32.009 16.3942 32.009 17.3669 31.9734L17.2937 31.1172L17.2769 30.8409L17.2668 30.5598L17.2653 30.2633C17.2653 28.4772 17.6215 26.7724 18.266 25.2192C18.936 23.6029 19.9188 22.1484 21.1365 20.9302C22.3542 19.7125 23.8097 18.7301 25.4255 18.0597C26.9787 17.4152 28.684 17.059 30.4696 17.059L30.7228 17.0604C31.1497 17.0744 31.5714 17.1062 31.9973 17.1375C32.0199 16.403 32.0305 15.7571 31.9973 15.0245H31.9964ZM21.9764 17.058C21.0316 17.6664 20.1575 18.373 19.3692 19.1623C18.5798 19.9512 17.8732 20.8258 17.2649 21.7706C16.7836 22.5152 16.3643 23.3035 16.0144 24.129C15.6626 23.3045 15.2429 22.5152 14.7625 21.7701C14.1546 20.8286 13.4485 19.9536 12.6568 19.1633C11.8665 18.3725 10.9934 17.6659 10.0519 17.059C9.30589 16.5767 8.5175 16.1585 7.69302 15.8071C8.51799 15.4562 9.30589 15.0361 10.0514 14.5557C10.9948 13.9473 11.8703 13.2417 12.6587 12.4529C13.4481 11.6635 14.1537 10.788 14.764 9.84463C15.2438 9.09956 15.6635 8.31021 16.0154 7.4862C16.3653 8.31117 16.7845 9.10004 17.2658 9.84463C17.8742 10.7894 18.5808 11.6635 19.3701 12.4529C20.158 13.2398 21.0331 13.9473 21.9769 14.5567C22.7205 15.0365 23.5099 15.4562 24.3358 15.8071C23.5108 16.159 22.7229 16.5772 21.9774 17.0585L21.9764 17.058Z" fill="#EF412E"/>
<path id="Vector_2" fill-rule="evenodd" clip-rule="evenodd" d="M14.1085 14.097C14.3568 13.8486 14.6548 13.6484 14.984 13.5117C15.3016 13.3798 15.6492 13.3066 16.0135 13.3066C16.3779 13.3066 16.7254 13.3798 17.043 13.5117C17.3713 13.6484 17.6673 13.8486 17.9156 14.0955C18.1654 14.3439 18.3657 14.6413 18.5019 14.9705C18.6347 15.2887 18.7069 15.6381 18.7069 16.0001C18.7069 16.362 18.6347 16.7119 18.5019 17.0301C18.3662 17.3583 18.1664 17.6548 17.9181 17.9027C17.6697 18.152 17.3722 18.3522 17.043 18.4894C16.7249 18.6213 16.3769 18.6935 16.0135 18.6935C15.6501 18.6935 15.3016 18.6198 14.984 18.4894C14.6557 18.3537 14.3583 18.1525 14.1109 17.9051C13.8616 17.6567 13.6613 17.3602 13.5242 17.0301C13.3928 16.7119 13.3201 16.3639 13.3201 16.0001C13.3201 15.6362 13.3932 15.2892 13.5242 14.9725C13.6599 14.6428 13.8611 14.3468 14.1085 14.0974" fill="#EF412E"/>
<path id="Vector_3" fill-rule="evenodd" clip-rule="evenodd" d="M21.315 31.1136L20.9314 31.2426C20.5719 31.3538 20.2143 31.4602 19.8533 31.5666L19.8697 30.8354C19.9024 29.3487 20.2205 27.9322 20.7692 26.6384C21.3381 25.298 22.1573 24.086 23.1662 23.0637C24.1755 22.0414 25.3783 21.2068 26.713 20.6201C28 20.0541 29.4122 19.7181 30.8956 19.6671L31.6291 19.6406C31.5275 20.0031 31.425 20.364 31.3191 20.7236L31.194 21.1091L31.0611 21.4908L30.8017 22.1646L30.471 22.1949C29.4117 22.2927 28.4048 22.5766 27.4831 23.0146C26.5339 23.4646 25.6752 24.0783 24.9456 24.8162C24.2159 25.5569 23.6119 26.4223 23.1734 27.3772C22.7503 28.3018 22.4789 29.3131 22.3941 30.3768L22.3677 30.7045L21.6852 30.9784L21.3141 31.1141L21.315 31.1136Z" fill="#EF412E"/>
<path id="Vector_4" fill-rule="evenodd" clip-rule="evenodd" d="M31.0527 10.4838L31.1846 10.8616C31.305 11.2342 31.4205 11.6062 31.5369 11.9802L30.776 11.9451C29.3407 11.8806 27.9738 11.5499 26.7248 11.0022C25.4301 10.4357 24.26 9.63524 23.269 8.6577C22.276 7.6763 21.4602 6.51586 20.8773 5.22883C20.3132 3.98512 19.9662 2.62157 19.8829 1.18774L19.8396 0.428711C20.2131 0.539894 20.5842 0.650114 20.9558 0.765629L21.3461 0.897027L21.7249 1.03613L22.3949 1.3071L22.432 1.61755C22.5562 2.62686 22.8488 3.58467 23.281 4.46114C23.7243 5.36312 24.3173 6.1799 25.0243 6.87829C25.7309 7.57619 26.5544 8.15858 27.4626 8.59128C28.3444 9.01194 29.3056 9.29399 30.3139 9.40325L30.6282 9.43838L30.9059 10.1069L31.0518 10.4843L31.0527 10.4838Z" fill="#EF412E"/>
<path id="Vector_5" fill-rule="evenodd" clip-rule="evenodd" d="M0.833314 21.1091L0.708173 20.725C0.601803 20.364 0.500247 20.0031 0.398209 19.6406L1.13028 19.6671C2.61465 19.7181 4.0273 20.0546 5.31529 20.6201C6.64804 21.2063 7.84987 22.04 8.86111 23.0637C9.86849 24.0851 10.6877 25.297 11.2576 26.6394C11.8063 27.9327 12.1239 29.3492 12.1567 30.8359L12.1754 31.567C11.812 31.4597 11.452 31.3533 11.092 31.2426L10.7142 31.1146L10.3421 30.9803L9.65912 30.7045L9.63361 30.3768C9.54842 29.3131 9.27793 28.3018 8.85341 27.3772C8.41493 26.4223 7.81185 25.5569 7.08122 24.8162C6.35251 24.0788 5.49385 23.4646 4.54375 23.0146C3.62251 22.5766 2.61561 22.2927 1.55673 22.1949L1.22606 22.1646L0.966156 21.4884L0.834277 21.1086L0.833314 21.1091Z" fill="#EF412E"/>
<path id="Vector_6" fill-rule="evenodd" clip-rule="evenodd" d="M10.6844 0.895102L11.0733 0.764666C11.4444 0.649152 11.8159 0.539413 12.187 0.428711L12.1437 1.18774C12.0604 2.62157 11.7129 3.98512 11.1493 5.22883C10.5655 6.51586 9.75062 7.6763 8.75671 8.6577C7.76617 9.63476 6.59658 10.4352 5.30185 11.0022C4.05381 11.5504 2.68592 11.881 1.25065 11.9451L0.490662 11.9802C0.606176 11.6077 0.72121 11.2356 0.840575 10.8645L0.973898 10.4843L1.11589 10.1103L1.39842 9.4379L1.71127 9.40277C2.72058 9.29351 3.68079 9.01146 4.56256 8.59079C5.47176 8.15761 6.29528 7.57378 7.00233 6.87588C7.70889 6.17894 8.30187 5.36119 8.74516 4.46018C9.17689 3.58323 9.46953 2.6259 9.59371 1.61659L9.63269 1.30614L10.3075 1.03372L10.6848 0.894621L10.6844 0.895102Z" fill="#EF412E"/>
</g>
<g id="Group_2">
<path id="Vector_7" d="M38.491 23.0899C38.491 21.337 39.8935 19.9258 41.7076 19.9258C43.5216 19.9258 44.9155 21.337 44.9155 23.0899C44.9155 24.8429 43.513 26.2541 41.7076 26.2541C39.9022 26.2541 38.491 24.8429 38.491 23.0899ZM41.7076 25.0797C42.8035 25.0797 43.6973 24.2032 43.6973 23.0899C43.6973 21.9767 42.8035 21.1002 41.7076 21.1002C40.6116 21.1002 39.7092 21.9767 39.7092 23.0899C39.7092 24.2032 40.6034 25.0797 41.7076 25.0797Z" fill="white"/>
<path id="Vector_8" d="M51.491 20.022H54.3923C55.6721 20.022 56.5399 20.9509 56.5399 22.0642C56.5399 22.8352 56.1279 23.5192 55.4445 23.8609L56.7594 26.1572H55.4623L54.2879 24.1064H52.675V26.1572H51.4914V20.0215L51.491 20.022ZM54.3577 23.0022C54.9189 23.0022 55.3217 22.5816 55.3217 22.0733C55.3217 21.565 54.9184 21.1352 54.3577 21.1352H52.6745V23.0022H54.3577Z" fill="white"/>
<path id="Vector_9" d="M63.2546 20.0215H64.4382V26.1572H63.2546V20.0215Z" fill="white"/>
<path id="Vector_10" d="M71.0123 23.0899C71.0123 21.337 72.4148 19.9258 74.2294 19.9258C75.6233 19.9258 76.7798 20.7325 77.227 21.968H75.8769C75.5525 21.3981 74.9826 21.0829 74.2289 21.0829C73.1243 21.0829 72.2305 21.968 72.2305 23.0899C72.2305 24.2119 73.1248 25.1061 74.2289 25.1061C75.0967 25.1061 75.7542 24.633 76.0434 23.8879H74.1413V22.8276H77.393V23.0466C77.393 24.8871 76.0343 26.2545 74.2289 26.2545C72.4235 26.2545 71.0118 24.8433 71.0118 23.0904L71.0123 23.0899Z" fill="white"/>
<path id="Vector_11" d="M83.9675 20.0215H85.1511V26.1572H83.9675V20.0215Z" fill="white"/>
<path id="Vector_12" d="M96.6956 26.1572L93.2071 22.2567V26.1572H92.0235V20.0215H92.7335L96.2923 23.922V20.0215H97.4753V26.1572H96.6951H96.6956Z" fill="white"/>
</g>
<g id="Group_3">
<path id="Vector_13" d="M50.8445 7.58398H53.4652L55.1643 14.5972L57.1704 7.58398H59.755L61.7611 14.5972L63.4785 7.58398H66.0453L63.2436 17.3984H60.5141L58.4536 10.4213L56.3931 17.3984H53.6818L50.844 7.58398H50.8445Z" fill="white"/>
<path id="Vector_14" d="M66.4059 12.4819C66.4059 9.66233 68.5025 7.38477 71.2137 7.38477C72.5874 7.38477 73.6357 7.98111 74.3586 8.90282V7.58355H76.7084V17.398H74.3586V16.0787C73.6357 17.0004 72.5874 17.5968 71.2137 17.5968C68.5025 17.5968 66.4059 15.3192 66.4059 12.4819ZM71.6296 15.2114C73.1476 15.2114 74.3586 14.0004 74.3586 12.4819C74.3586 10.9633 73.1476 9.77063 71.6296 9.77063C70.1115 9.77063 68.9183 10.9816 68.9183 12.4819C68.9183 13.9821 70.111 15.2114 71.6296 15.2114Z" fill="white"/>
<path id="Vector_15" d="M78.7138 3.66113H81.1541V17.3978H78.7138V3.66113ZM81.3345 12.3012L85.058 7.58382H87.8236L84.1002 12.1568L88.0041 17.3982H85.1124L81.3345 12.3012Z" fill="white"/>
<path id="Vector_16" d="M87.8961 12.4819C87.8961 9.66233 90.0832 7.38477 93.0293 7.38477C95.9754 7.38477 98.1081 9.53575 98.1081 12.2831C98.1081 12.6445 98.072 12.9155 97.9998 13.2409H90.4086C90.6795 14.4519 91.6195 15.3558 93.0115 15.3558C94.0415 15.3558 94.6383 14.976 95.1442 14.3436H97.801C97.042 16.2597 95.3069 17.5968 93.0293 17.5968C90.0832 17.5968 87.8961 15.3192 87.8961 12.4819ZM95.5418 11.3253C95.1803 10.2226 94.2764 9.51794 93.0293 9.51794C91.7822 9.51794 90.8605 10.2226 90.499 11.3253H95.5418Z" fill="white"/>
<path id="Vector_17" d="M49.0561 17.3983H51.8034L45.6397 4.74609H44.2299L38.0485 17.3983H40.7419L41.6857 15.4105L43.2972 12.0019L44.899 8.59562L46.7308 12.4909L48.1122 15.4105L49.0561 17.3983Z" fill="white"/>
</g>
</g>
</g>
<defs>
<clipPath id="clip0_1_88">
<rect width="98.1077" height="32" fill="white"/>
</clipPath>
</defs>
</svg>
